<svg width="1113" height="288" viewBox="0 0 1113 288" fill="none" xmlns="http://www.w3.org/2000/svg">
<path d="M0.177734 79.9293C0.177734 71.2379 1.83789 63.0836 5.1582 55.4664C8.47852 47.8492 12.9707 41.2086 18.6348 35.5446C24.3965 29.7828 31.0859 25.2418 38.7031 21.9215C46.3203 18.6012 54.4746 16.941 63.166 16.941H159.553V58.9821H63.166C60.2363 58.9821 57.502 59.5192 54.9629 60.5934C52.4238 61.6676 50.1777 63.1813 48.2246 65.1344C46.3691 66.9899 44.9043 69.1871 43.8301 71.7262C42.7559 74.2653 42.2188 76.9996 42.2188 79.9293C42.2188 82.859 42.7559 85.6422 43.8301 88.2789C44.9043 90.818 46.3691 93.0641 48.2246 95.0172C50.1777 96.8727 52.4238 98.3375 54.9629 99.4117C57.502 100.486 60.2363 101.023 63.166 101.023H105.207C113.898 101.023 122.053 102.683 129.67 106.004C137.385 109.226 144.074 113.718 149.738 119.48C155.5 125.144 159.992 131.834 163.215 139.548C166.535 147.166 168.195 155.32 168.195 164.011C168.195 172.703 166.535 180.857 163.215 188.474C159.992 196.091 155.5 202.781 149.738 208.543C144.074 214.207 137.385 218.699 129.67 222.019C122.053 225.339 113.898 227 105.207 227H11.8965V184.959H105.207C108.137 184.959 110.871 184.422 113.41 183.347C115.949 182.273 118.146 180.808 120.002 178.953C121.955 177 123.469 174.754 124.543 172.214C125.617 169.675 126.154 166.941 126.154 164.011C126.154 161.082 125.617 158.347 124.543 155.808C123.469 153.269 121.955 151.072 120.002 149.216C118.146 147.263 115.949 145.75 113.41 144.675C110.871 143.601 108.137 143.064 105.207 143.064H63.166C54.4746 143.064 46.3203 141.404 38.7031 138.084C31.0859 134.763 24.3965 130.271 18.6348 124.607C12.9707 118.845 8.47852 112.156 5.1582 104.539C1.83789 96.8239 0.177734 88.6207 0.177734 79.9293Z" fill="#E42024"/>
<path d="M238.801 27.4879C238.801 31.1989 238.068 34.6656 236.604 37.8883C235.236 41.111 233.332 43.943 230.891 46.3844C228.449 48.7281 225.568 50.6324 222.248 52.0973C219.025 53.4645 215.559 54.1481 211.848 54.1481C208.137 54.1481 204.621 53.4645 201.301 52.0973C198.078 50.6324 195.246 48.7281 192.805 46.3844C190.461 43.943 188.557 41.111 187.092 37.8883C185.725 34.6656 185.041 31.1989 185.041 27.4879C185.041 23.8746 185.725 20.4567 187.092 17.234C188.557 13.9137 190.461 11.0817 192.805 8.73792C195.246 6.29651 198.078 4.39221 201.301 3.02502C204.621 1.56018 208.137 0.827759 211.848 0.827759C215.559 0.827759 219.025 1.56018 222.248 3.02502C225.568 4.39221 228.449 6.29651 230.891 8.73792C233.332 11.0817 235.236 13.9137 236.604 17.234C238.068 20.4567 238.801 23.8746 238.801 27.4879ZM231.916 227H191.633V70.1149H231.916V227ZM359.152 147.166C359.152 141.697 358.078 136.423 355.93 131.345C353.879 126.17 351.047 121.629 347.434 117.722C343.82 113.718 339.572 110.545 334.689 108.201C329.904 105.759 324.777 104.539 319.309 104.539C313.84 104.539 308.664 105.466 303.781 107.322C298.996 109.177 294.797 111.912 291.184 115.525C287.668 119.138 284.885 123.63 282.834 129.002C280.783 134.275 279.758 140.33 279.758 147.166C279.758 153.709 280.783 159.617 282.834 164.89C284.885 170.066 287.668 174.509 291.184 178.22C294.797 181.931 298.996 184.812 303.781 186.863C308.664 188.816 313.84 189.793 319.309 189.793C324.777 189.793 329.904 188.621 334.689 186.277C339.572 183.836 343.82 180.662 347.434 176.755C351.047 172.752 353.879 168.211 355.93 163.132C358.078 157.957 359.152 152.634 359.152 147.166ZM399.436 207.224C399.436 218.259 397.336 228.611 393.137 238.279C388.938 247.947 383.176 256.394 375.852 263.621C368.625 270.847 360.129 276.56 350.363 280.759C340.695 284.959 330.344 287.058 319.309 287.058L299.24 286.765V246.775L319.016 247.068C325.266 247.068 330.588 246.238 334.982 244.578C339.377 243.015 343.088 240.818 346.115 237.986C349.143 235.252 351.535 232.078 353.293 228.464C355.148 224.851 356.613 221.043 357.688 217.039C356.125 219.578 353.879 221.677 350.949 223.338C348.02 224.9 344.748 226.17 341.135 227.146C337.619 228.22 333.908 228.953 330.002 229.343C326.193 229.734 322.629 229.929 319.309 229.929C308.273 229.929 297.873 228.025 288.107 224.216C278.439 220.408 269.943 214.988 262.619 207.957C255.393 200.828 249.68 192.136 245.48 181.882C241.281 171.629 239.182 160.056 239.182 147.166C239.182 135.349 241.281 124.363 245.48 114.207C249.68 104.05 255.393 95.2614 262.619 87.8395C269.943 80.4176 278.439 74.6071 288.107 70.4078C297.873 66.2086 308.273 64.109 319.309 64.109C324.387 64.109 329.416 64.7438 334.396 66.0133C339.377 67.2828 344.211 69.0406 348.898 71.2867C353.586 73.5328 358.029 76.1696 362.229 79.1969C366.525 82.2242 370.529 85.4957 374.24 89.0114L389.768 70.4078H399.436V207.224ZM455.041 227H415.051V70.1149H424.719L437.902 85.3492C444.348 79.4899 451.623 74.9977 459.729 71.8727C467.932 68.65 476.477 67.0387 485.363 67.0387C494.934 67.0387 503.967 68.8942 512.463 72.6051C520.959 76.2184 528.381 81.2477 534.729 87.693C541.076 94.0406 546.057 101.511 549.67 110.105C553.381 118.601 555.236 127.683 555.236 137.351V227H515.246V137.351C515.246 133.25 514.465 129.392 512.902 125.779C511.34 122.068 509.191 118.845 506.457 116.111C503.723 113.377 500.549 111.228 496.936 109.666C493.322 108.103 489.465 107.322 485.363 107.322C481.164 107.322 477.209 108.103 473.498 109.666C469.787 111.228 466.564 113.377 463.83 116.111C461.096 118.845 458.947 122.068 457.385 125.779C455.822 129.392 455.041 133.25 455.041 137.351V227ZM720.705 227H711.037L695.51 205.466C691.701 208.884 687.648 212.107 683.352 215.134C679.152 218.064 674.709 220.652 670.021 222.898C665.334 225.047 660.5 226.755 655.52 228.025C650.637 229.295 645.656 229.929 640.578 229.929C629.543 229.929 619.143 228.074 609.377 224.363C599.709 220.652 591.213 215.281 583.889 208.25C576.662 201.121 570.949 192.429 566.75 182.175C562.551 171.922 560.451 160.252 560.451 147.166C560.451 134.959 562.551 123.777 566.75 113.621C570.949 103.367 576.662 94.5778 583.889 87.2535C591.213 79.9293 599.709 74.2653 609.377 70.2614C619.143 66.1598 629.543 64.109 640.578 64.109C645.656 64.109 650.686 64.7438 655.666 66.0133C660.646 67.2828 665.48 69.0406 670.168 71.2867C674.855 73.5328 679.299 76.1696 683.498 79.1969C687.795 82.2242 691.799 85.4957 695.51 89.0114L711.037 70.4078H720.705V227ZM680.422 147.166C680.422 141.697 679.348 136.423 677.199 131.345C675.148 126.17 672.316 121.629 668.703 117.722C665.09 113.718 660.842 110.545 655.959 108.201C651.174 105.759 646.047 104.539 640.578 104.539C635.109 104.539 629.934 105.466 625.051 107.322C620.266 109.177 616.066 111.912 612.453 115.525C608.938 119.138 606.154 123.63 604.104 129.002C602.053 134.275 601.027 140.33 601.027 147.166C601.027 154.002 602.053 160.105 604.104 165.476C606.154 170.75 608.938 175.193 612.453 178.806C616.066 182.42 620.266 185.154 625.051 187.009C629.934 188.865 635.109 189.793 640.578 189.793C646.047 189.793 651.174 188.621 655.959 186.277C660.842 183.836 665.09 180.662 668.703 176.755C672.316 172.752 675.148 168.211 677.199 163.132C679.348 157.957 680.422 152.634 680.422 147.166ZM776.604 227H736.32V7.71252H776.604V227ZM839.387 27.4879C839.387 31.1989 838.654 34.6656 837.189 37.8883C835.822 41.111 833.918 43.943 831.477 46.3844C829.035 48.7281 826.154 50.6324 822.834 52.0973C819.611 53.4645 816.145 54.1481 812.434 54.1481C808.723 54.1481 805.207 53.4645 801.887 52.0973C798.664 50.6324 795.832 48.7281 793.391 46.3844C791.047 43.943 789.143 41.111 787.678 37.8883C786.311 34.6656 785.627 31.1989 785.627 27.4879C785.627 23.8746 786.311 20.4567 787.678 17.234C789.143 13.9137 791.047 11.0817 793.391 8.73792C795.832 6.29651 798.664 4.39221 801.887 3.02502C805.207 1.56018 808.723 0.827759 812.434 0.827759C816.145 0.827759 819.611 1.56018 822.834 3.02502C826.154 4.39221 829.035 6.29651 831.477 8.73792C833.918 11.0817 835.822 13.9137 837.189 17.234C838.654 20.4567 839.387 23.8746 839.387 27.4879ZM832.502 227H792.219V70.1149H832.502V227ZM970.578 227H839.768L905.832 110.252H839.768V70.4078H970.578L904.514 187.156H970.578V227ZM1037.9 188.621C1039.46 189.109 1041.03 189.451 1042.59 189.646C1044.15 189.744 1045.71 189.793 1047.28 189.793C1051.18 189.793 1054.94 189.255 1058.56 188.181C1062.17 187.107 1065.54 185.593 1068.66 183.64C1071.89 181.589 1074.72 179.148 1077.16 176.316C1079.7 173.386 1081.75 170.164 1083.31 166.648L1112.61 196.091C1108.9 201.365 1104.6 206.101 1099.72 210.3C1094.93 214.5 1089.71 218.064 1084.04 220.994C1078.48 223.923 1072.57 226.121 1066.32 227.586C1060.17 229.148 1053.82 229.929 1047.28 229.929C1036.24 229.929 1025.84 227.879 1016.08 223.777C1006.41 219.675 997.912 213.963 990.588 206.638C983.361 199.314 977.648 190.623 973.449 180.564C969.25 170.408 967.15 159.275 967.15 147.166C967.15 134.763 969.25 123.435 973.449 113.181C977.648 102.927 983.361 94.1871 990.588 86.9606C997.912 79.734 1006.41 74.1188 1016.08 70.1149C1025.84 66.111 1036.24 64.109 1047.28 64.109C1053.82 64.109 1060.22 64.8903 1066.47 66.4528C1072.72 68.0153 1078.62 70.2614 1084.19 73.191C1089.86 76.1207 1095.13 79.734 1100.01 84.0309C1104.89 88.2301 1109.19 92.9664 1112.9 98.2399L1037.9 188.621ZM1058.41 106.15C1056.55 105.466 1054.7 105.027 1052.84 104.832C1051.09 104.636 1049.23 104.539 1047.28 104.539C1041.81 104.539 1036.63 105.564 1031.75 107.615C1026.96 109.568 1022.77 112.4 1019.15 116.111C1015.64 119.822 1012.85 124.314 1010.8 129.588C1008.75 134.763 1007.73 140.623 1007.73 147.166C1007.73 148.63 1007.78 150.291 1007.87 152.146C1008.07 154.002 1008.31 155.906 1008.61 157.859C1009 159.714 1009.44 161.521 1009.92 163.279C1010.41 165.037 1011.05 166.599 1011.83 167.966L1058.41 106.15Z" fill="white"/>
</svg>
