<svg width="1134" height="422" viewBox="0 0 1134 422" fill="none" xmlns="http://www.w3.org/2000/svg">
<path d="M16.1777 168.929C16.1777 160.238 17.8379 152.084 21.1582 144.466C24.4785 136.849 28.9707 130.209 34.6348 124.545C40.3965 118.783 47.0859 114.242 54.7031 110.922C62.3203 107.601 70.4746 105.941 79.166 105.941H175.553V147.982H79.166C76.2363 147.982 73.502 148.519 70.9629 149.593C68.4238 150.668 66.1777 152.181 64.2246 154.134C62.3691 155.99 60.9043 158.187 59.8301 160.726C58.7559 163.265 58.2188 166 58.2188 168.929C58.2188 171.859 58.7559 174.642 59.8301 177.279C60.9043 179.818 62.3691 182.064 64.2246 184.017C66.1777 185.873 68.4238 187.338 70.9629 188.412C73.502 189.486 76.2363 190.023 79.166 190.023H121.207C129.898 190.023 138.053 191.683 145.67 195.004C153.385 198.226 160.074 202.718 165.738 208.48C171.5 214.144 175.992 220.834 179.215 228.548C182.535 236.166 184.195 244.32 184.195 253.011C184.195 261.703 182.535 269.857 179.215 277.474C175.992 285.091 171.5 291.781 165.738 297.543C160.074 303.207 153.385 307.699 145.67 311.019C138.053 314.339 129.898 316 121.207 316H27.8965V273.959H121.207C124.137 273.959 126.871 273.422 129.41 272.347C131.949 271.273 134.146 269.808 136.002 267.953C137.955 266 139.469 263.754 140.543 261.214C141.617 258.675 142.154 255.941 142.154 253.011C142.154 250.082 141.617 247.347 140.543 244.808C139.469 242.269 137.955 240.072 136.002 238.216C134.146 236.263 131.949 234.75 129.41 233.675C126.871 232.601 124.137 232.064 121.207 232.064H79.166C70.4746 232.064 62.3203 230.404 54.7031 227.084C47.0859 223.763 40.3965 219.271 34.6348 213.607C28.9707 207.845 24.4785 201.156 21.1582 193.539C17.8379 185.824 16.1777 177.621 16.1777 168.929Z" fill="#F54350"/>
<path d="M254.801 116.488C254.801 120.199 254.068 123.666 252.604 126.888C251.236 130.111 249.332 132.943 246.891 135.384C244.449 137.728 241.568 139.632 238.248 141.097C235.025 142.464 231.559 143.148 227.848 143.148C224.137 143.148 220.621 142.464 217.301 141.097C214.078 139.632 211.246 137.728 208.805 135.384C206.461 132.943 204.557 130.111 203.092 126.888C201.725 123.666 201.041 120.199 201.041 116.488C201.041 112.875 201.725 109.457 203.092 106.234C204.557 102.914 206.461 100.082 208.805 97.7379C211.246 95.2965 214.078 93.3922 217.301 92.025C220.621 90.5602 224.137 89.8278 227.848 89.8278C231.559 89.8278 235.025 90.5602 238.248 92.025C241.568 93.3922 244.449 95.2965 246.891 97.7379C249.332 100.082 251.236 102.914 252.604 106.234C254.068 109.457 254.801 112.875 254.801 116.488ZM247.916 316H207.633V159.115H247.916V316ZM375.152 236.166C375.152 230.697 374.078 225.423 371.93 220.345C369.879 215.17 367.047 210.629 363.434 206.722C359.82 202.718 355.572 199.545 350.689 197.201C345.904 194.759 340.777 193.539 335.309 193.539C329.84 193.539 324.664 194.466 319.781 196.322C314.996 198.177 310.797 200.912 307.184 204.525C303.668 208.138 300.885 212.63 298.834 218.002C296.783 223.275 295.758 229.33 295.758 236.166C295.758 242.709 296.783 248.617 298.834 253.89C300.885 259.066 303.668 263.509 307.184 267.22C310.797 270.931 314.996 273.812 319.781 275.863C324.664 277.816 329.84 278.793 335.309 278.793C340.777 278.793 345.904 277.621 350.689 275.277C355.572 272.836 359.82 269.662 363.434 265.755C367.047 261.752 369.879 257.211 371.93 252.132C374.078 246.957 375.152 241.634 375.152 236.166ZM415.436 296.224C415.436 307.259 413.336 317.611 409.137 327.279C404.938 336.947 399.176 345.394 391.852 352.621C384.625 359.847 376.129 365.56 366.363 369.759C356.695 373.959 346.344 376.058 335.309 376.058L315.24 375.765V335.775L335.016 336.068C341.266 336.068 346.588 335.238 350.982 333.578C355.377 332.015 359.088 329.818 362.115 326.986C365.143 324.252 367.535 321.078 369.293 317.464C371.148 313.851 372.613 310.043 373.688 306.039C372.125 308.578 369.879 310.677 366.949 312.338C364.02 313.9 360.748 315.17 357.135 316.146C353.619 317.22 349.908 317.953 346.002 318.343C342.193 318.734 338.629 318.929 335.309 318.929C324.273 318.929 313.873 317.025 304.107 313.216C294.439 309.408 285.943 303.988 278.619 296.957C271.393 289.828 265.68 281.136 261.48 270.882C257.281 260.629 255.182 249.056 255.182 236.166C255.182 224.349 257.281 213.363 261.48 203.207C265.68 193.05 271.393 184.261 278.619 176.839C285.943 169.418 294.439 163.607 304.107 159.408C313.873 155.209 324.273 153.109 335.309 153.109C340.387 153.109 345.416 153.744 350.396 155.013C355.377 156.283 360.211 158.041 364.898 160.287C369.586 162.533 374.029 165.17 378.229 168.197C382.525 171.224 386.529 174.496 390.24 178.011L405.768 159.408H415.436V296.224ZM471.041 316H431.051V159.115H440.719L453.902 174.349C460.348 168.49 467.623 163.998 475.729 160.873C483.932 157.65 492.477 156.039 501.363 156.039C510.934 156.039 519.967 157.894 528.463 161.605C536.959 165.218 544.381 170.248 550.729 176.693C557.076 183.041 562.057 190.511 565.67 199.105C569.381 207.601 571.236 216.683 571.236 226.351V316H531.246V226.351C531.246 222.25 530.465 218.392 528.902 214.779C527.34 211.068 525.191 207.845 522.457 205.111C519.723 202.377 516.549 200.228 512.936 198.666C509.322 197.103 505.465 196.322 501.363 196.322C497.164 196.322 493.209 197.103 489.498 198.666C485.787 200.228 482.564 202.377 479.83 205.111C477.096 207.845 474.947 211.068 473.385 214.779C471.822 218.392 471.041 222.25 471.041 226.351V316ZM736.705 316H727.037L711.51 294.466C707.701 297.884 703.648 301.107 699.352 304.134C695.152 307.064 690.709 309.652 686.021 311.898C681.334 314.047 676.5 315.755 671.52 317.025C666.637 318.295 661.656 318.929 656.578 318.929C645.543 318.929 635.143 317.074 625.377 313.363C615.709 309.652 607.213 304.281 599.889 297.25C592.662 290.121 586.949 281.429 582.75 271.175C578.551 260.922 576.451 249.252 576.451 236.166C576.451 223.959 578.551 212.777 582.75 202.621C586.949 192.367 592.662 183.578 599.889 176.254C607.213 168.929 615.709 163.265 625.377 159.261C635.143 155.16 645.543 153.109 656.578 153.109C661.656 153.109 666.686 153.744 671.666 155.013C676.646 156.283 681.48 158.041 686.168 160.287C690.855 162.533 695.299 165.17 699.498 168.197C703.795 171.224 707.799 174.496 711.51 178.011L727.037 159.408H736.705V316ZM696.422 236.166C696.422 230.697 695.348 225.423 693.199 220.345C691.148 215.17 688.316 210.629 684.703 206.722C681.09 202.718 676.842 199.545 671.959 197.201C667.174 194.759 662.047 193.539 656.578 193.539C651.109 193.539 645.934 194.466 641.051 196.322C636.266 198.177 632.066 200.912 628.453 204.525C624.938 208.138 622.154 212.63 620.104 218.002C618.053 223.275 617.027 229.33 617.027 236.166C617.027 243.002 618.053 249.105 620.104 254.476C622.154 259.75 624.938 264.193 628.453 267.806C632.066 271.42 636.266 274.154 641.051 276.009C645.934 277.865 651.109 278.793 656.578 278.793C662.047 278.793 667.174 277.621 671.959 275.277C676.842 272.836 681.09 269.662 684.703 265.755C688.316 261.752 691.148 257.211 693.199 252.132C695.348 246.957 696.422 241.634 696.422 236.166ZM792.604 316H752.32V96.7125H792.604V316ZM855.387 116.488C855.387 120.199 854.654 123.666 853.189 126.888C851.822 130.111 849.918 132.943 847.477 135.384C845.035 137.728 842.154 139.632 838.834 141.097C835.611 142.464 832.145 143.148 828.434 143.148C824.723 143.148 821.207 142.464 817.887 141.097C814.664 139.632 811.832 137.728 809.391 135.384C807.047 132.943 805.143 130.111 803.678 126.888C802.311 123.666 801.627 120.199 801.627 116.488C801.627 112.875 802.311 109.457 803.678 106.234C805.143 102.914 807.047 100.082 809.391 97.7379C811.832 95.2965 814.664 93.3922 817.887 92.025C821.207 90.5602 824.723 89.8278 828.434 89.8278C832.145 89.8278 835.611 90.5602 838.834 92.025C842.154 93.3922 845.035 95.2965 847.477 97.7379C849.918 100.082 851.822 102.914 853.189 106.234C854.654 109.457 855.387 112.875 855.387 116.488ZM848.502 316H808.219V159.115H848.502V316ZM986.578 316H855.768L921.832 199.252H855.768V159.408H986.578L920.514 276.156H986.578V316ZM1053.9 277.621C1055.46 278.109 1057.03 278.451 1058.59 278.646C1060.15 278.744 1061.71 278.793 1063.28 278.793C1067.18 278.793 1070.94 278.255 1074.56 277.181C1078.17 276.107 1081.54 274.593 1084.66 272.64C1087.89 270.589 1090.72 268.148 1093.16 265.316C1095.7 262.386 1097.75 259.164 1099.31 255.648L1128.61 285.091C1124.9 290.365 1120.6 295.101 1115.72 299.3C1110.93 303.5 1105.71 307.064 1100.04 309.994C1094.48 312.923 1088.57 315.121 1082.32 316.586C1076.17 318.148 1069.82 318.929 1063.28 318.929C1052.24 318.929 1041.84 316.879 1032.08 312.777C1022.41 308.675 1013.91 302.963 1006.59 295.638C999.361 288.314 993.648 279.623 989.449 269.564C985.25 259.408 983.15 248.275 983.15 236.166C983.15 223.763 985.25 212.435 989.449 202.181C993.648 191.927 999.361 183.187 1006.59 175.961C1013.91 168.734 1022.41 163.119 1032.08 159.115C1041.84 155.111 1052.24 153.109 1063.28 153.109C1069.82 153.109 1076.22 153.89 1082.47 155.453C1088.72 157.015 1094.62 159.261 1100.19 162.191C1105.86 165.121 1111.13 168.734 1116.01 173.031C1120.89 177.23 1125.19 181.966 1128.9 187.24L1053.9 277.621ZM1074.41 195.15C1072.55 194.466 1070.7 194.027 1068.84 193.832C1067.09 193.636 1065.23 193.539 1063.28 193.539C1057.81 193.539 1052.63 194.564 1047.75 196.615C1042.96 198.568 1038.77 201.4 1035.15 205.111C1031.64 208.822 1028.85 213.314 1026.8 218.588C1024.75 223.763 1023.73 229.623 1023.73 236.166C1023.73 237.63 1023.78 239.291 1023.87 241.146C1024.07 243.002 1024.31 244.906 1024.61 246.859C1025 248.714 1025.44 250.521 1025.92 252.279C1026.41 254.037 1027.05 255.599 1027.83 256.966L1074.41 195.15Z" fill="white"/>
<path d="M45.8008 294.828L85.6445 330.961L66.2109 352.641L5.95703 296L64.8438 234.77L85.8398 254.594L45.8008 294.828Z" fill="#F54350"/>
<path d="M157.199 127.172L117.355 91.0391L136.789 69.3594L197.043 126L138.156 187.23L117.16 167.406L157.199 127.172Z" fill="#F54350"/>
</svg>
