<svg width="1135" height="422" viewBox="0 0 1135 422" fill="none" xmlns="http://www.w3.org/2000/svg">
<path d="M17.1777 168.93C17.1777 160.238 18.8379 152.084 22.1582 144.467C25.4785 136.85 29.9707 130.209 35.6348 124.545C41.3965 118.783 48.0859 114.242 55.7031 110.922C63.3203 107.602 71.4746 105.941 80.166 105.941H176.553V147.982H80.166C77.2363 147.982 74.502 148.52 71.9629 149.594C69.4238 150.668 67.1777 152.182 65.2246 154.135C63.3691 155.99 61.9043 158.188 60.8301 160.727C59.7559 163.266 59.2188 166 59.2188 168.93C59.2188 171.859 59.7559 174.643 60.8301 177.279C61.9043 179.818 63.3691 182.064 65.2246 184.018C67.1777 185.873 69.4238 187.338 71.9629 188.412C74.502 189.486 77.2363 190.023 80.166 190.023H122.207C130.898 190.023 139.053 191.684 146.67 195.004C154.385 198.227 161.074 202.719 166.738 208.48C172.5 214.145 176.992 220.834 180.215 228.549C183.535 236.166 185.195 244.32 185.195 253.012C185.195 261.703 183.535 269.857 180.215 277.475C176.992 285.092 172.5 291.781 166.738 297.543C161.074 303.207 154.385 307.699 146.67 311.02C139.053 314.34 130.898 316 122.207 316H28.8965V273.959H122.207C125.137 273.959 127.871 273.422 130.41 272.348C132.949 271.273 135.146 269.809 137.002 267.953C138.955 266 140.469 263.754 141.543 261.215C142.617 258.676 143.154 255.941 143.154 253.012C143.154 250.082 142.617 247.348 141.543 244.809C140.469 242.27 138.955 240.072 137.002 238.217C135.146 236.264 132.949 234.75 130.41 233.676C127.871 232.602 125.137 232.064 122.207 232.064H80.166C71.4746 232.064 63.3203 230.404 55.7031 227.084C48.0859 223.764 41.3965 219.271 35.6348 213.607C29.9707 207.846 25.4785 201.156 22.1582 193.539C18.8379 185.824 17.1777 177.621 17.1777 168.93Z" fill="#F54350"/>
<path d="M255.801 116.488C255.801 120.199 255.068 123.666 253.604 126.889C252.236 130.111 250.332 132.943 247.891 135.385C245.449 137.729 242.568 139.633 239.248 141.098C236.025 142.465 232.559 143.148 228.848 143.148C225.137 143.148 221.621 142.465 218.301 141.098C215.078 139.633 212.246 137.729 209.805 135.385C207.461 132.943 205.557 130.111 204.092 126.889C202.725 123.666 202.041 120.199 202.041 116.488C202.041 112.875 202.725 109.457 204.092 106.234C205.557 102.914 207.461 100.082 209.805 97.7383C212.246 95.2969 215.078 93.3926 218.301 92.0254C221.621 90.5605 225.137 89.8281 228.848 89.8281C232.559 89.8281 236.025 90.5605 239.248 92.0254C242.568 93.3926 245.449 95.2969 247.891 97.7383C250.332 100.082 252.236 102.914 253.604 106.234C255.068 109.457 255.801 112.875 255.801 116.488ZM248.916 316H208.633V159.115H248.916V316ZM376.152 236.166C376.152 230.697 375.078 225.424 372.93 220.346C370.879 215.17 368.047 210.629 364.434 206.723C360.82 202.719 356.572 199.545 351.689 197.201C346.904 194.76 341.777 193.539 336.309 193.539C330.84 193.539 325.664 194.467 320.781 196.322C315.996 198.178 311.797 200.912 308.184 204.525C304.668 208.139 301.885 212.631 299.834 218.002C297.783 223.275 296.758 229.33 296.758 236.166C296.758 242.709 297.783 248.617 299.834 253.891C301.885 259.066 304.668 263.51 308.184 267.221C311.797 270.932 315.996 273.812 320.781 275.863C325.664 277.816 330.84 278.793 336.309 278.793C341.777 278.793 346.904 277.621 351.689 275.277C356.572 272.836 360.82 269.662 364.434 265.756C368.047 261.752 370.879 257.211 372.93 252.133C375.078 246.957 376.152 241.635 376.152 236.166ZM416.436 296.225C416.436 307.26 414.336 317.611 410.137 327.279C405.938 336.947 400.176 345.395 392.852 352.621C385.625 359.848 377.129 365.561 367.363 369.76C357.695 373.959 347.344 376.059 336.309 376.059L316.24 375.766V335.775L336.016 336.068C342.266 336.068 347.588 335.238 351.982 333.578C356.377 332.016 360.088 329.818 363.115 326.986C366.143 324.252 368.535 321.078 370.293 317.465C372.148 313.852 373.613 310.043 374.688 306.039C373.125 308.578 370.879 310.678 367.949 312.338C365.02 313.9 361.748 315.17 358.135 316.146C354.619 317.221 350.908 317.953 347.002 318.344C343.193 318.734 339.629 318.93 336.309 318.93C325.273 318.93 314.873 317.025 305.107 313.217C295.439 309.408 286.943 303.988 279.619 296.957C272.393 289.828 266.68 281.137 262.48 270.883C258.281 260.629 256.182 249.057 256.182 236.166C256.182 224.35 258.281 213.363 262.48 203.207C266.68 193.051 272.393 184.262 279.619 176.84C286.943 169.418 295.439 163.607 305.107 159.408C314.873 155.209 325.273 153.109 336.309 153.109C341.387 153.109 346.416 153.744 351.396 155.014C356.377 156.283 361.211 158.041 365.898 160.287C370.586 162.533 375.029 165.17 379.229 168.197C383.525 171.225 387.529 174.496 391.24 178.012L406.768 159.408H416.436V296.225ZM472.041 316H432.051V159.115H441.719L454.902 174.35C461.348 168.49 468.623 163.998 476.729 160.873C484.932 157.65 493.477 156.039 502.363 156.039C511.934 156.039 520.967 157.895 529.463 161.605C537.959 165.219 545.381 170.248 551.729 176.693C558.076 183.041 563.057 190.512 566.67 199.105C570.381 207.602 572.236 216.684 572.236 226.352V316H532.246V226.352C532.246 222.25 531.465 218.393 529.902 214.779C528.34 211.068 526.191 207.846 523.457 205.111C520.723 202.377 517.549 200.229 513.936 198.666C510.322 197.104 506.465 196.322 502.363 196.322C498.164 196.322 494.209 197.104 490.498 198.666C486.787 200.229 483.564 202.377 480.83 205.111C478.096 207.846 475.947 211.068 474.385 214.779C472.822 218.393 472.041 222.25 472.041 226.352V316ZM737.705 316H728.037L712.51 294.467C708.701 297.885 704.648 301.107 700.352 304.135C696.152 307.064 691.709 309.652 687.021 311.898C682.334 314.047 677.5 315.756 672.52 317.025C667.637 318.295 662.656 318.93 657.578 318.93C646.543 318.93 636.143 317.074 626.377 313.363C616.709 309.652 608.213 304.281 600.889 297.25C593.662 290.121 587.949 281.43 583.75 271.176C579.551 260.922 577.451 249.252 577.451 236.166C577.451 223.959 579.551 212.777 583.75 202.621C587.949 192.367 593.662 183.578 600.889 176.254C608.213 168.93 616.709 163.266 626.377 159.262C636.143 155.16 646.543 153.109 657.578 153.109C662.656 153.109 667.686 153.744 672.666 155.014C677.646 156.283 682.48 158.041 687.168 160.287C691.855 162.533 696.299 165.17 700.498 168.197C704.795 171.225 708.799 174.496 712.51 178.012L728.037 159.408H737.705V316ZM697.422 236.166C697.422 230.697 696.348 225.424 694.199 220.346C692.148 215.17 689.316 210.629 685.703 206.723C682.09 202.719 677.842 199.545 672.959 197.201C668.174 194.76 663.047 193.539 657.578 193.539C652.109 193.539 646.934 194.467 642.051 196.322C637.266 198.178 633.066 200.912 629.453 204.525C625.938 208.139 623.154 212.631 621.104 218.002C619.053 223.275 618.027 229.33 618.027 236.166C618.027 243.002 619.053 249.105 621.104 254.477C623.154 259.75 625.938 264.193 629.453 267.807C633.066 271.42 637.266 274.154 642.051 276.01C646.934 277.865 652.109 278.793 657.578 278.793C663.047 278.793 668.174 277.621 672.959 275.277C677.842 272.836 682.09 269.662 685.703 265.756C689.316 261.752 692.148 257.211 694.199 252.133C696.348 246.957 697.422 241.635 697.422 236.166ZM793.604 316H753.32V96.7129H793.604V316ZM856.387 116.488C856.387 120.199 855.654 123.666 854.189 126.889C852.822 130.111 850.918 132.943 848.477 135.385C846.035 137.729 843.154 139.633 839.834 141.098C836.611 142.465 833.145 143.148 829.434 143.148C825.723 143.148 822.207 142.465 818.887 141.098C815.664 139.633 812.832 137.729 810.391 135.385C808.047 132.943 806.143 130.111 804.678 126.889C803.311 123.666 802.627 120.199 802.627 116.488C802.627 112.875 803.311 109.457 804.678 106.234C806.143 102.914 808.047 100.082 810.391 97.7383C812.832 95.2969 815.664 93.3926 818.887 92.0254C822.207 90.5605 825.723 89.8281 829.434 89.8281C833.145 89.8281 836.611 90.5605 839.834 92.0254C843.154 93.3926 846.035 95.2969 848.477 97.7383C850.918 100.082 852.822 102.914 854.189 106.234C855.654 109.457 856.387 112.875 856.387 116.488ZM849.502 316H809.219V159.115H849.502V316ZM987.578 316H856.768L922.832 199.252H856.768V159.408H987.578L921.514 276.156H987.578V316ZM1054.9 277.621C1056.46 278.109 1058.03 278.451 1059.59 278.646C1061.15 278.744 1062.71 278.793 1064.28 278.793C1068.18 278.793 1071.94 278.256 1075.56 277.182C1079.17 276.107 1082.54 274.594 1085.66 272.641C1088.89 270.59 1091.72 268.148 1094.16 265.316C1096.7 262.387 1098.75 259.164 1100.31 255.648L1129.61 285.092C1125.9 290.365 1121.6 295.102 1116.72 299.301C1111.93 303.5 1106.71 307.064 1101.04 309.994C1095.48 312.924 1089.57 315.121 1083.32 316.586C1077.17 318.148 1070.82 318.93 1064.28 318.93C1053.24 318.93 1042.84 316.879 1033.08 312.777C1023.41 308.676 1014.91 302.963 1007.59 295.639C1000.36 288.314 994.648 279.623 990.449 269.564C986.25 259.408 984.15 248.275 984.15 236.166C984.15 223.764 986.25 212.436 990.449 202.182C994.648 191.928 1000.36 183.188 1007.59 175.961C1014.91 168.734 1023.41 163.119 1033.08 159.115C1042.84 155.111 1053.24 153.109 1064.28 153.109C1070.82 153.109 1077.22 153.891 1083.47 155.453C1089.72 157.016 1095.62 159.262 1101.19 162.191C1106.86 165.121 1112.13 168.734 1117.01 173.031C1121.89 177.23 1126.19 181.967 1129.9 187.24L1054.9 277.621ZM1075.41 195.15C1073.55 194.467 1071.7 194.027 1069.84 193.832C1068.09 193.637 1066.23 193.539 1064.28 193.539C1058.81 193.539 1053.63 194.564 1048.75 196.615C1043.96 198.568 1039.77 201.4 1036.15 205.111C1032.64 208.822 1029.85 213.314 1027.8 218.588C1025.75 223.764 1024.73 229.623 1024.73 236.166C1024.73 237.631 1024.78 239.291 1024.87 241.146C1025.07 243.002 1025.31 244.906 1025.61 246.859C1026 248.715 1026.44 250.521 1026.92 252.279C1027.41 254.037 1028.05 255.6 1028.83 256.967L1075.41 195.15Z" fill="#121212"/>
<path d="M45.8008 294.828L85.6445 330.961L66.2109 352.641L5.95703 296L64.8438 234.77L85.8398 254.594L45.8008 294.828Z" fill="#F54350"/>
<path d="M157.199 127.172L117.355 91.0391L136.789 69.3594L197.043 126L138.156 187.23L117.16 167.406L157.199 127.172Z" fill="#F54350"/>
</svg>
