<svg width="1145" height="424" viewBox="0 0 1145 424" fill="none" xmlns="http://www.w3.org/2000/svg">
<path d="M27.1777 168.929C27.1777 160.238 28.8379 152.084 32.1582 144.466C35.4785 136.849 39.9707 130.209 45.6348 124.545C51.3965 118.783 58.0859 114.242 65.7031 110.922C73.3203 107.601 81.4746 105.941 90.166 105.941H186.553V147.982H90.166C87.2363 147.982 84.502 148.519 81.9629 149.593C79.4238 150.668 77.1777 152.181 75.2246 154.134C73.3691 155.99 71.9043 158.187 70.8301 160.726C69.7559 163.265 69.2188 166 69.2188 168.929C69.2188 171.859 69.7559 174.642 70.8301 177.279C71.9043 179.818 73.3691 182.064 75.2246 184.017C77.1777 185.873 79.4238 187.338 81.9629 188.412C84.502 189.486 87.2363 190.023 90.166 190.023H132.207C140.898 190.023 149.053 191.683 156.67 195.004C164.385 198.226 171.074 202.718 176.738 208.48C182.5 214.144 186.992 220.834 190.215 228.548C193.535 236.166 195.195 244.32 195.195 253.011C195.195 261.703 193.535 269.857 190.215 277.474C186.992 285.091 182.5 291.781 176.738 297.543C171.074 303.207 164.385 307.699 156.67 311.019C149.053 314.339 140.898 316 132.207 316H38.8965V273.959H132.207C135.137 273.959 137.871 273.422 140.41 272.347C142.949 271.273 145.146 269.808 147.002 267.953C148.955 266 150.469 263.754 151.543 261.214C152.617 258.675 153.154 255.941 153.154 253.011C153.154 250.082 152.617 247.347 151.543 244.808C150.469 242.269 148.955 240.072 147.002 238.216C145.146 236.263 142.949 234.75 140.41 233.675C137.871 232.601 135.137 232.064 132.207 232.064H90.166C81.4746 232.064 73.3203 230.404 65.7031 227.084C58.0859 223.763 51.3965 219.271 45.6348 213.607C39.9707 207.845 35.4785 201.156 32.1582 193.539C28.8379 185.824 27.1777 177.621 27.1777 168.929Z" fill="#FF243E"/>
<path d="M265.801 116.488C265.801 120.199 265.068 123.666 263.604 126.888C262.236 130.111 260.332 132.943 257.891 135.384C255.449 137.728 252.568 139.632 249.248 141.097C246.025 142.464 242.559 143.148 238.848 143.148C235.137 143.148 231.621 142.464 228.301 141.097C225.078 139.632 222.246 137.728 219.805 135.384C217.461 132.943 215.557 130.111 214.092 126.888C212.725 123.666 212.041 120.199 212.041 116.488C212.041 112.875 212.725 109.457 214.092 106.234C215.557 102.914 217.461 100.082 219.805 97.7379C222.246 95.2965 225.078 93.3922 228.301 92.025C231.621 90.5602 235.137 89.8278 238.848 89.8278C242.559 89.8278 246.025 90.5602 249.248 92.025C252.568 93.3922 255.449 95.2965 257.891 97.7379C260.332 100.082 262.236 102.914 263.604 106.234C265.068 109.457 265.801 112.875 265.801 116.488ZM258.916 316H218.633V159.115H258.916V316ZM386.152 236.166C386.152 230.697 385.078 225.423 382.93 220.345C380.879 215.17 378.047 210.629 374.434 206.722C370.82 202.718 366.572 199.545 361.689 197.201C356.904 194.759 351.777 193.539 346.309 193.539C340.84 193.539 335.664 194.466 330.781 196.322C325.996 198.177 321.797 200.912 318.184 204.525C314.668 208.138 311.885 212.63 309.834 218.002C307.783 223.275 306.758 229.33 306.758 236.166C306.758 242.709 307.783 248.617 309.834 253.89C311.885 259.066 314.668 263.509 318.184 267.22C321.797 270.931 325.996 273.812 330.781 275.863C335.664 277.816 340.84 278.793 346.309 278.793C351.777 278.793 356.904 277.621 361.689 275.277C366.572 272.836 370.82 269.662 374.434 265.755C378.047 261.752 380.879 257.211 382.93 252.132C385.078 246.957 386.152 241.634 386.152 236.166ZM426.436 296.224C426.436 307.259 424.336 317.611 420.137 327.279C415.938 336.947 410.176 345.394 402.852 352.621C395.625 359.847 387.129 365.56 377.363 369.759C367.695 373.959 357.344 376.058 346.309 376.058L326.24 375.765V335.775L346.016 336.068C352.266 336.068 357.588 335.238 361.982 333.578C366.377 332.015 370.088 329.818 373.115 326.986C376.143 324.252 378.535 321.078 380.293 317.464C382.148 313.851 383.613 310.043 384.688 306.039C383.125 308.578 380.879 310.677 377.949 312.338C375.02 313.9 371.748 315.17 368.135 316.146C364.619 317.22 360.908 317.953 357.002 318.343C353.193 318.734 349.629 318.929 346.309 318.929C335.273 318.929 324.873 317.025 315.107 313.216C305.439 309.408 296.943 303.988 289.619 296.957C282.393 289.828 276.68 281.136 272.48 270.882C268.281 260.629 266.182 249.056 266.182 236.166C266.182 224.349 268.281 213.363 272.48 203.207C276.68 193.05 282.393 184.261 289.619 176.839C296.943 169.418 305.439 163.607 315.107 159.408C324.873 155.209 335.273 153.109 346.309 153.109C351.387 153.109 356.416 153.744 361.396 155.013C366.377 156.283 371.211 158.041 375.898 160.287C380.586 162.533 385.029 165.17 389.229 168.197C393.525 171.224 397.529 174.496 401.24 178.011L416.768 159.408H426.436V296.224ZM482.041 316H442.051V159.115H451.719L464.902 174.349C471.348 168.49 478.623 163.998 486.729 160.873C494.932 157.65 503.477 156.039 512.363 156.039C521.934 156.039 530.967 157.894 539.463 161.605C547.959 165.218 555.381 170.248 561.729 176.693C568.076 183.041 573.057 190.511 576.67 199.105C580.381 207.601 582.236 216.683 582.236 226.351V316H542.246V226.351C542.246 222.25 541.465 218.392 539.902 214.779C538.34 211.068 536.191 207.845 533.457 205.111C530.723 202.377 527.549 200.228 523.936 198.666C520.322 197.103 516.465 196.322 512.363 196.322C508.164 196.322 504.209 197.103 500.498 198.666C496.787 200.228 493.564 202.377 490.83 205.111C488.096 207.845 485.947 211.068 484.385 214.779C482.822 218.392 482.041 222.25 482.041 226.351V316ZM747.705 316H738.037L722.51 294.466C718.701 297.884 714.648 301.107 710.352 304.134C706.152 307.064 701.709 309.652 697.021 311.898C692.334 314.047 687.5 315.755 682.52 317.025C677.637 318.295 672.656 318.929 667.578 318.929C656.543 318.929 646.143 317.074 636.377 313.363C626.709 309.652 618.213 304.281 610.889 297.25C603.662 290.121 597.949 281.429 593.75 271.175C589.551 260.922 587.451 249.252 587.451 236.166C587.451 223.959 589.551 212.777 593.75 202.621C597.949 192.367 603.662 183.578 610.889 176.254C618.213 168.929 626.709 163.265 636.377 159.261C646.143 155.16 656.543 153.109 667.578 153.109C672.656 153.109 677.686 153.744 682.666 155.013C687.646 156.283 692.48 158.041 697.168 160.287C701.855 162.533 706.299 165.17 710.498 168.197C714.795 171.224 718.799 174.496 722.51 178.011L738.037 159.408H747.705V316ZM707.422 236.166C707.422 230.697 706.348 225.423 704.199 220.345C702.148 215.17 699.316 210.629 695.703 206.722C692.09 202.718 687.842 199.545 682.959 197.201C678.174 194.759 673.047 193.539 667.578 193.539C662.109 193.539 656.934 194.466 652.051 196.322C647.266 198.177 643.066 200.912 639.453 204.525C635.938 208.138 633.154 212.63 631.104 218.002C629.053 223.275 628.027 229.33 628.027 236.166C628.027 243.002 629.053 249.105 631.104 254.476C633.154 259.75 635.938 264.193 639.453 267.806C643.066 271.42 647.266 274.154 652.051 276.009C656.934 277.865 662.109 278.793 667.578 278.793C673.047 278.793 678.174 277.621 682.959 275.277C687.842 272.836 692.09 269.662 695.703 265.755C699.316 261.752 702.148 257.211 704.199 252.132C706.348 246.957 707.422 241.634 707.422 236.166ZM803.604 316H763.32V96.7125H803.604V316ZM866.387 116.488C866.387 120.199 865.654 123.666 864.189 126.888C862.822 130.111 860.918 132.943 858.477 135.384C856.035 137.728 853.154 139.632 849.834 141.097C846.611 142.464 843.145 143.148 839.434 143.148C835.723 143.148 832.207 142.464 828.887 141.097C825.664 139.632 822.832 137.728 820.391 135.384C818.047 132.943 816.143 130.111 814.678 126.888C813.311 123.666 812.627 120.199 812.627 116.488C812.627 112.875 813.311 109.457 814.678 106.234C816.143 102.914 818.047 100.082 820.391 97.7379C822.832 95.2965 825.664 93.3922 828.887 92.025C832.207 90.5602 835.723 89.8278 839.434 89.8278C843.145 89.8278 846.611 90.5602 849.834 92.025C853.154 93.3922 856.035 95.2965 858.477 97.7379C860.918 100.082 862.822 102.914 864.189 106.234C865.654 109.457 866.387 112.875 866.387 116.488ZM859.502 316H819.219V159.115H859.502V316ZM997.578 316H866.768L932.832 199.252H866.768V159.408H997.578L931.514 276.156H997.578V316ZM1064.9 277.621C1066.46 278.109 1068.03 278.451 1069.59 278.646C1071.15 278.744 1072.71 278.793 1074.28 278.793C1078.18 278.793 1081.94 278.255 1085.56 277.181C1089.17 276.107 1092.54 274.593 1095.66 272.64C1098.89 270.589 1101.72 268.148 1104.16 265.316C1106.7 262.386 1108.75 259.164 1110.31 255.648L1139.61 285.091C1135.9 290.365 1131.6 295.101 1126.72 299.3C1121.93 303.5 1116.71 307.064 1111.04 309.994C1105.48 312.923 1099.57 315.121 1093.32 316.586C1087.17 318.148 1080.82 318.929 1074.28 318.929C1063.24 318.929 1052.84 316.879 1043.08 312.777C1033.41 308.675 1024.91 302.963 1017.59 295.638C1010.36 288.314 1004.65 279.623 1000.45 269.564C996.25 259.408 994.15 248.275 994.15 236.166C994.15 223.763 996.25 212.435 1000.45 202.181C1004.65 191.927 1010.36 183.187 1017.59 175.961C1024.91 168.734 1033.41 163.119 1043.08 159.115C1052.84 155.111 1063.24 153.109 1074.28 153.109C1080.82 153.109 1087.22 153.89 1093.47 155.453C1099.72 157.015 1105.62 159.261 1111.19 162.191C1116.86 165.121 1122.13 168.734 1127.01 173.031C1131.89 177.23 1136.19 181.966 1139.9 187.24L1064.9 277.621ZM1085.41 195.15C1083.55 194.466 1081.7 194.027 1079.84 193.832C1078.09 193.636 1076.23 193.539 1074.28 193.539C1068.81 193.539 1063.63 194.564 1058.75 196.615C1053.96 198.568 1049.77 201.4 1046.15 205.111C1042.64 208.822 1039.85 213.314 1037.8 218.588C1035.75 223.763 1034.73 229.623 1034.73 236.166C1034.73 237.63 1034.78 239.291 1034.87 241.146C1035.07 243.002 1035.31 244.906 1035.61 246.859C1036 248.714 1036.44 250.521 1036.92 252.279C1037.41 254.037 1038.05 255.599 1038.83 256.966L1085.41 195.15Z" fill="#121212"/>
<path d="M27.1777 168.929C27.1777 160.238 28.8379 152.084 32.1582 144.466C35.4785 136.849 39.9707 130.209 45.6348 124.545C51.3965 118.783 58.0859 114.242 65.7031 110.922C73.3203 107.601 81.4746 105.941 90.166 105.941H186.553V147.982H90.166C87.2363 147.982 84.502 148.519 81.9629 149.593C79.4238 150.668 77.1777 152.181 75.2246 154.134C73.3691 155.99 71.9043 158.187 70.8301 160.726C69.7559 163.265 69.2188 166 69.2188 168.929C69.2188 171.859 69.7559 174.642 70.8301 177.279C71.9043 179.818 73.3691 182.064 75.2246 184.017C77.1777 185.873 79.4238 187.338 81.9629 188.412C84.502 189.486 87.2363 190.023 90.166 190.023H132.207C140.898 190.023 149.053 191.683 156.67 195.004C164.385 198.226 171.074 202.718 176.738 208.48C182.5 214.144 186.992 220.834 190.215 228.548C193.535 236.166 195.195 244.32 195.195 253.011C195.195 261.703 193.535 269.857 190.215 277.474C186.992 285.091 182.5 291.781 176.738 297.543C171.074 303.207 164.385 307.699 156.67 311.019C149.053 314.339 140.898 316 132.207 316H38.8965V273.959H132.207C135.137 273.959 137.871 273.422 140.41 272.347C142.949 271.273 145.146 269.808 147.002 267.953C148.955 266 150.469 263.754 151.543 261.214C152.617 258.675 153.154 255.941 153.154 253.011C153.154 250.082 152.617 247.347 151.543 244.808C150.469 242.269 148.955 240.072 147.002 238.216C145.146 236.263 142.949 234.75 140.41 233.675C137.871 232.601 135.137 232.064 132.207 232.064H90.166C81.4746 232.064 73.3203 230.404 65.7031 227.084C58.0859 223.763 51.3965 219.271 45.6348 213.607C39.9707 207.845 35.4785 201.156 32.1582 193.539C28.8379 185.824 27.1777 177.621 27.1777 168.929Z" fill="#E42024"/>
<path d="M265.801 116.488C265.801 120.199 265.068 123.666 263.604 126.888C262.236 130.111 260.332 132.943 257.891 135.384C255.449 137.728 252.568 139.632 249.248 141.097C246.025 142.464 242.559 143.148 238.848 143.148C235.137 143.148 231.621 142.464 228.301 141.097C225.078 139.632 222.246 137.728 219.805 135.384C217.461 132.943 215.557 130.111 214.092 126.888C212.725 123.666 212.041 120.199 212.041 116.488C212.041 112.875 212.725 109.457 214.092 106.234C215.557 102.914 217.461 100.082 219.805 97.7379C222.246 95.2965 225.078 93.3922 228.301 92.025C231.621 90.5602 235.137 89.8278 238.848 89.8278C242.559 89.8278 246.025 90.5602 249.248 92.025C252.568 93.3922 255.449 95.2965 257.891 97.7379C260.332 100.082 262.236 102.914 263.604 106.234C265.068 109.457 265.801 112.875 265.801 116.488ZM258.916 316H218.633V159.115H258.916V316ZM386.152 236.166C386.152 230.697 385.078 225.423 382.93 220.345C380.879 215.17 378.047 210.629 374.434 206.722C370.82 202.718 366.572 199.545 361.689 197.201C356.904 194.759 351.777 193.539 346.309 193.539C340.84 193.539 335.664 194.466 330.781 196.322C325.996 198.177 321.797 200.912 318.184 204.525C314.668 208.138 311.885 212.63 309.834 218.002C307.783 223.275 306.758 229.33 306.758 236.166C306.758 242.709 307.783 248.617 309.834 253.89C311.885 259.066 314.668 263.509 318.184 267.22C321.797 270.931 325.996 273.812 330.781 275.863C335.664 277.816 340.84 278.793 346.309 278.793C351.777 278.793 356.904 277.621 361.689 275.277C366.572 272.836 370.82 269.662 374.434 265.755C378.047 261.752 380.879 257.211 382.93 252.132C385.078 246.957 386.152 241.634 386.152 236.166ZM426.436 296.224C426.436 307.259 424.336 317.611 420.137 327.279C415.938 336.947 410.176 345.394 402.852 352.621C395.625 359.847 387.129 365.56 377.363 369.759C367.695 373.959 357.344 376.058 346.309 376.058L326.24 375.765V335.775L346.016 336.068C352.266 336.068 357.588 335.238 361.982 333.578C366.377 332.015 370.088 329.818 373.115 326.986C376.143 324.252 378.535 321.078 380.293 317.464C382.148 313.851 383.613 310.043 384.688 306.039C383.125 308.578 380.879 310.677 377.949 312.338C375.02 313.9 371.748 315.17 368.135 316.146C364.619 317.22 360.908 317.953 357.002 318.343C353.193 318.734 349.629 318.929 346.309 318.929C335.273 318.929 324.873 317.025 315.107 313.216C305.439 309.408 296.943 303.988 289.619 296.957C282.393 289.828 276.68 281.136 272.48 270.882C268.281 260.629 266.182 249.056 266.182 236.166C266.182 224.349 268.281 213.363 272.48 203.207C276.68 193.05 282.393 184.261 289.619 176.839C296.943 169.418 305.439 163.607 315.107 159.408C324.873 155.209 335.273 153.109 346.309 153.109C351.387 153.109 356.416 153.744 361.396 155.013C366.377 156.283 371.211 158.041 375.898 160.287C380.586 162.533 385.029 165.17 389.229 168.197C393.525 171.224 397.529 174.496 401.24 178.011L416.768 159.408H426.436V296.224ZM482.041 316H442.051V159.115H451.719L464.902 174.349C471.348 168.49 478.623 163.998 486.729 160.873C494.932 157.65 503.477 156.039 512.363 156.039C521.934 156.039 530.967 157.894 539.463 161.605C547.959 165.218 555.381 170.248 561.729 176.693C568.076 183.041 573.057 190.511 576.67 199.105C580.381 207.601 582.236 216.683 582.236 226.351V316H542.246V226.351C542.246 222.25 541.465 218.392 539.902 214.779C538.34 211.068 536.191 207.845 533.457 205.111C530.723 202.377 527.549 200.228 523.936 198.666C520.322 197.103 516.465 196.322 512.363 196.322C508.164 196.322 504.209 197.103 500.498 198.666C496.787 200.228 493.564 202.377 490.83 205.111C488.096 207.845 485.947 211.068 484.385 214.779C482.822 218.392 482.041 222.25 482.041 226.351V316ZM747.705 316H738.037L722.51 294.466C718.701 297.884 714.648 301.107 710.352 304.134C706.152 307.064 701.709 309.652 697.021 311.898C692.334 314.047 687.5 315.755 682.52 317.025C677.637 318.295 672.656 318.929 667.578 318.929C656.543 318.929 646.143 317.074 636.377 313.363C626.709 309.652 618.213 304.281 610.889 297.25C603.662 290.121 597.949 281.429 593.75 271.175C589.551 260.922 587.451 249.252 587.451 236.166C587.451 223.959 589.551 212.777 593.75 202.621C597.949 192.367 603.662 183.578 610.889 176.254C618.213 168.929 626.709 163.265 636.377 159.261C646.143 155.16 656.543 153.109 667.578 153.109C672.656 153.109 677.686 153.744 682.666 155.013C687.646 156.283 692.48 158.041 697.168 160.287C701.855 162.533 706.299 165.17 710.498 168.197C714.795 171.224 718.799 174.496 722.51 178.011L738.037 159.408H747.705V316ZM707.422 236.166C707.422 230.697 706.348 225.423 704.199 220.345C702.148 215.17 699.316 210.629 695.703 206.722C692.09 202.718 687.842 199.545 682.959 197.201C678.174 194.759 673.047 193.539 667.578 193.539C662.109 193.539 656.934 194.466 652.051 196.322C647.266 198.177 643.066 200.912 639.453 204.525C635.938 208.138 633.154 212.63 631.104 218.002C629.053 223.275 628.027 229.33 628.027 236.166C628.027 243.002 629.053 249.105 631.104 254.476C633.154 259.75 635.938 264.193 639.453 267.806C643.066 271.42 647.266 274.154 652.051 276.009C656.934 277.865 662.109 278.793 667.578 278.793C673.047 278.793 678.174 277.621 682.959 275.277C687.842 272.836 692.09 269.662 695.703 265.755C699.316 261.752 702.148 257.211 704.199 252.132C706.348 246.957 707.422 241.634 707.422 236.166ZM803.604 316H763.32V96.7125H803.604V316ZM866.387 116.488C866.387 120.199 865.654 123.666 864.189 126.888C862.822 130.111 860.918 132.943 858.477 135.384C856.035 137.728 853.154 139.632 849.834 141.097C846.611 142.464 843.145 143.148 839.434 143.148C835.723 143.148 832.207 142.464 828.887 141.097C825.664 139.632 822.832 137.728 820.391 135.384C818.047 132.943 816.143 130.111 814.678 126.888C813.311 123.666 812.627 120.199 812.627 116.488C812.627 112.875 813.311 109.457 814.678 106.234C816.143 102.914 818.047 100.082 820.391 97.7379C822.832 95.2965 825.664 93.3922 828.887 92.025C832.207 90.5602 835.723 89.8278 839.434 89.8278C843.145 89.8278 846.611 90.5602 849.834 92.025C853.154 93.3922 856.035 95.2965 858.477 97.7379C860.918 100.082 862.822 102.914 864.189 106.234C865.654 109.457 866.387 112.875 866.387 116.488ZM859.502 316H819.219V159.115H859.502V316ZM997.578 316H866.768L932.832 199.252H866.768V159.408H997.578L931.514 276.156H997.578V316ZM1064.9 277.621C1066.46 278.109 1068.03 278.451 1069.59 278.646C1071.15 278.744 1072.71 278.793 1074.28 278.793C1078.18 278.793 1081.94 278.255 1085.56 277.181C1089.17 276.107 1092.54 274.593 1095.66 272.64C1098.89 270.589 1101.72 268.148 1104.16 265.316C1106.7 262.386 1108.75 259.164 1110.31 255.648L1139.61 285.091C1135.9 290.365 1131.6 295.101 1126.72 299.3C1121.93 303.5 1116.71 307.064 1111.04 309.994C1105.48 312.923 1099.57 315.121 1093.32 316.586C1087.17 318.148 1080.82 318.929 1074.28 318.929C1063.24 318.929 1052.84 316.879 1043.08 312.777C1033.41 308.675 1024.91 302.963 1017.59 295.638C1010.36 288.314 1004.65 279.623 1000.45 269.564C996.25 259.408 994.15 248.275 994.15 236.166C994.15 223.763 996.25 212.435 1000.45 202.181C1004.65 191.927 1010.36 183.187 1017.59 175.961C1024.91 168.734 1033.41 163.119 1043.08 159.115C1052.84 155.111 1063.24 153.109 1074.28 153.109C1080.82 153.109 1087.22 153.89 1093.47 155.453C1099.72 157.015 1105.62 159.261 1111.19 162.191C1116.86 165.121 1122.13 168.734 1127.01 173.031C1131.89 177.23 1136.19 181.966 1139.9 187.24L1064.9 277.621ZM1085.41 195.15C1083.55 194.466 1081.7 194.027 1079.84 193.832C1078.09 193.636 1076.23 193.539 1074.28 193.539C1068.81 193.539 1063.63 194.564 1058.75 196.615C1053.96 198.568 1049.77 201.4 1046.15 205.111C1042.64 208.822 1039.85 213.314 1037.8 218.588C1035.75 223.763 1034.73 229.623 1034.73 236.166C1034.73 237.63 1034.78 239.291 1034.87 241.146C1035.07 243.002 1035.31 244.906 1035.61 246.859C1036 248.714 1036.44 250.521 1036.92 252.279C1037.41 254.037 1038.05 255.599 1038.83 256.966L1085.41 195.15Z" fill="#121212"/>
<path d="M45.8008 296.828L85.6445 332.961L66.2109 354.641L5.95703 298L64.8438 236.77L85.8398 256.594L45.8008 296.828Z" fill="#FF243E"/>
<path d="M168.199 127.172L128.355 91.0391L147.789 69.3594L208.043 126L149.156 187.23L128.16 167.406L168.199 127.172Z" fill="#E42024"/>
</svg>
