<svg width="432" height="432" viewBox="0 0 432 432" fill="none" xmlns="http://www.w3.org/2000/svg">
<circle cx="216" cy="216" r="216" fill="#EEEEEE"/>
<path d="M292.553 110.941V108.941H290.553H194.166C185.213 108.941 176.785 110.653 168.904 114.088C161.062 117.506 154.163 122.188 148.221 128.13C142.373 133.978 137.741 140.829 134.325 148.667C130.89 156.548 129.178 164.976 129.178 173.929C129.178 182.883 130.89 191.356 134.321 199.329L134.325 199.338C137.74 207.173 142.368 214.068 148.209 220.009L148.221 220.021L148.233 220.033C154.174 225.874 161.069 230.502 168.904 233.917C176.785 237.352 185.213 239.064 194.166 239.064H236.207C238.886 239.064 241.354 239.554 243.631 240.517C245.923 241.487 247.89 242.845 249.552 244.594L249.587 244.631L249.624 244.666C251.374 246.328 252.731 248.295 253.701 250.588C254.665 252.865 255.154 255.332 255.154 258.011C255.154 260.69 254.665 263.158 253.701 265.435C252.727 267.737 251.359 269.767 249.588 271.539C247.924 273.203 245.945 274.526 243.631 275.505C241.354 276.469 238.886 276.959 236.207 276.959H142.896H140.896V278.959V321V323H142.896H236.207C245.159 323 253.585 321.289 261.464 317.855C269.399 314.439 276.301 309.808 282.152 303.957C288.097 298.013 292.732 291.11 296.053 283.263C299.485 275.385 301.195 266.961 301.195 258.011C301.195 249.063 299.486 240.64 296.054 232.763C292.735 224.823 288.102 217.917 282.153 212.066C276.302 206.117 269.396 201.483 261.455 198.164C253.578 194.733 245.155 193.023 236.207 193.023H194.166C191.487 193.023 189.019 192.533 186.742 191.57C184.435 190.594 182.405 189.272 180.639 187.603C178.973 185.84 177.653 183.814 176.677 181.512C175.707 179.125 175.219 176.603 175.219 173.929C175.219 171.25 175.709 168.783 176.672 166.505C177.651 164.191 178.975 162.213 180.639 160.549C182.41 158.777 184.441 157.409 186.742 156.435C189.019 155.472 191.487 154.982 194.166 154.982H290.553H292.553V152.982V110.941Z" fill="#FF243E" stroke="#EEEEEE" stroke-width="4"/>
<mask id="path-3-outside-1_218_8" maskUnits="userSpaceOnUse" x="91" y="236" width="92" height="130" fill="black">
<rect fill="white" x="91" y="236" width="92" height="130"/>
<path d="M136.801 301.828L176.645 337.961L157.211 359.641L96.957 303L155.844 241.77L176.84 261.594L136.801 301.828Z"/>
</mask>
<path d="M136.801 301.828L176.645 337.961L157.211 359.641L96.957 303L155.844 241.77L176.84 261.594L136.801 301.828Z" fill="#FF243E"/>
<path d="M136.801 301.828L133.965 299.007L131.01 301.977L134.114 304.791L136.801 301.828ZM176.645 337.961L179.623 340.631L182.278 337.669L179.332 334.998L176.645 337.961ZM157.211 359.641L154.471 362.555L157.456 365.36L160.189 362.311L157.211 359.641ZM96.957 303L94.074 300.227L91.2695 303.143L94.2173 305.914L96.957 303ZM155.844 241.77L158.59 238.861L155.708 236.14L152.961 238.997L155.844 241.77ZM176.84 261.594L179.675 264.415L182.572 261.505L179.586 258.685L176.84 261.594ZM134.114 304.791L173.957 340.924L179.332 334.998L139.488 298.865L134.114 304.791ZM173.666 335.291L154.232 356.971L160.189 362.311L179.623 340.631L173.666 335.291ZM159.951 356.726L99.6967 300.086L94.2173 305.914L154.471 362.555L159.951 356.726ZM99.8401 305.773L158.727 244.542L152.961 238.997L94.074 300.227L99.8401 305.773ZM153.098 244.678L174.094 264.502L179.586 258.685L158.59 238.861L153.098 244.678ZM174.005 258.772L133.965 299.007L139.636 304.65L179.675 264.415L174.005 258.772Z" fill="#EEEEEE" mask="url(#path-3-outside-1_218_8)"/>
<mask id="path-5-outside-2_218_8" maskUnits="userSpaceOnUse" x="249" y="66.0001" width="92" height="130" fill="black">
<rect fill="white" x="249" y="66.0001" width="92" height="130"/>
<path d="M295.199 130.172L255.355 94.0391L274.789 72.3594L335.043 129L276.156 190.231L255.16 170.406L295.199 130.172Z"/>
</mask>
<path d="M295.199 130.172L255.355 94.0391L274.789 72.3594L335.043 129L276.156 190.231L255.16 170.406L295.199 130.172Z" fill="#FF243E"/>
<path d="M295.199 130.172L298.035 132.993L300.99 130.024L297.886 127.209L295.199 130.172ZM255.355 94.0391L252.377 91.3692L249.722 94.3306L252.668 97.0022L255.355 94.0391ZM274.789 72.3594L277.529 69.445L274.544 66.6396L271.811 69.6895L274.789 72.3594ZM335.043 129L337.926 131.773L340.731 128.857L337.783 126.086L335.043 129ZM276.156 190.231L273.41 193.139L276.292 195.86L279.039 193.003L276.156 190.231ZM255.16 170.406L252.325 167.585L249.428 170.496L252.414 173.315L255.16 170.406ZM297.886 127.209L258.043 91.0761L252.668 97.0022L292.512 133.135L297.886 127.209ZM258.334 96.709L277.768 75.0294L271.811 69.6895L252.377 91.3692L258.334 96.709ZM272.049 75.2739L332.303 131.915L337.783 126.086L277.529 69.445L272.049 75.2739ZM332.16 126.227L273.273 187.458L279.039 193.003L337.926 131.773L332.16 126.227ZM278.902 187.322L257.906 167.498L252.414 173.315L273.41 193.139L278.902 187.322ZM257.995 173.228L298.035 132.993L292.364 127.35L252.325 167.585L257.995 173.228Z" fill="#EEEEEE" mask="url(#path-5-outside-2_218_8)"/>
</svg>
