<svg width="242" height="424" viewBox="0 0 242 424" fill="none" xmlns="http://www.w3.org/2000/svg">
<g filter="url(#filter0_d_218_3)">
<path d="M35.1777 168.929C35.1777 160.238 36.8379 152.084 40.1582 144.467C43.4785 136.849 47.9707 130.209 53.6348 124.545C59.3965 118.783 66.0859 114.242 73.7031 110.922C81.3203 107.601 89.4746 105.941 98.166 105.941H194.553V147.982H98.166C95.2363 147.982 92.502 148.519 89.9629 149.593C87.4238 150.668 85.1777 152.181 83.2246 154.134C81.3691 155.99 79.9043 158.187 78.8301 160.726C77.7559 163.265 77.2188 166 77.2188 168.929C77.2188 171.859 77.7559 174.642 78.8301 177.279C79.9043 179.818 81.3691 182.064 83.2246 184.017C85.1777 185.873 87.4238 187.338 89.9629 188.412C92.502 189.486 95.2363 190.023 98.166 190.023H140.207C148.898 190.023 157.053 191.683 164.67 195.004C172.385 198.226 179.074 202.718 184.738 208.48C190.5 214.144 194.992 220.834 198.215 228.549C201.535 236.166 203.195 244.32 203.195 253.011C203.195 261.703 201.535 269.857 198.215 277.474C194.992 285.092 190.5 291.781 184.738 297.543C179.074 303.207 172.385 307.699 164.67 311.019C157.053 314.34 148.898 316 140.207 316H46.8965V273.959H140.207C143.137 273.959 145.871 273.422 148.41 272.347C150.949 271.273 153.146 269.808 155.002 267.953C156.955 266 158.469 263.754 159.543 261.215C160.617 258.676 161.154 255.941 161.154 253.011C161.154 250.082 160.617 247.347 159.543 244.808C158.469 242.269 156.955 240.072 155.002 238.217C153.146 236.263 150.949 234.75 148.41 233.676C145.871 232.601 143.137 232.064 140.207 232.064H98.166C89.4746 232.064 81.3203 230.404 73.7031 227.084C66.0859 223.763 59.3965 219.271 53.6348 213.607C47.9707 207.845 43.4785 201.156 40.1582 193.539C36.8379 185.824 35.1777 177.621 35.1777 168.929Z" fill="#FF243E"/>
<path d="M45.8008 296.828L85.6445 332.961L66.2109 354.641L5.95703 298L64.8438 236.77L85.8398 256.594L45.8008 296.828Z" fill="#FF243E"/>
<path d="M196.199 127.172L156.355 91.0391L175.789 69.3594L236.043 126L177.156 187.23L156.16 167.406L196.199 127.172Z" fill="#FF243E"/>
</g>
<defs>
<filter id="filter0_d_218_3" x="1.95703" y="69.3594" width="238.086" height="293.281" filterUnits="userSpaceOnUse" color-interpolation-filters="sRGB">
<feFlood flood-opacity="0" result="BackgroundImageFix"/>
<feColorMatrix in="SourceAlpha" type="matrix" values="0 0 0 0 0 0 0 0 0 0 0 0 0 0 0 0 0 0 127 0" result="hardAlpha"/>
<feOffset dy="4"/>
<feGaussianBlur stdDeviation="2"/>
<feComposite in2="hardAlpha" operator="out"/>
<feColorMatrix type="matrix" values="0 0 0 0 0 0 0 0 0 0 0 0 0 0 0 0 0 0 0.25 0"/>
<feBlend mode="normal" in2="BackgroundImageFix" result="effect1_dropShadow_218_3"/>
<feBlend mode="normal" in="SourceGraphic" in2="effect1_dropShadow_218_3" result="shape"/>
</filter>
</defs>
</svg>
