<?xml version="1.0" standalone="no"?>
<!DOCTYPE svg PUBLIC "-//W3C//DTD SVG 20010904//EN"
 "http://www.w3.org/TR/2001/REC-SVG-20010904/DTD/svg10.dtd">
<svg version="1.0" xmlns="http://www.w3.org/2000/svg"
 width="432.000000pt" height="432.000000pt" viewBox="0 0 432.000000 432.000000"
 preserveAspectRatio="xMidYMid meet">
<metadata>
Created by potrace 1.14, written by Peter Selinger 2001-2017
</metadata>
<g transform="translate(0.000000,432.000000) scale(0.100000,-0.100000)"
fill="#000000" stroke="none">
<path d="M2015 4314 c-181 -15 -386 -57 -560 -115 -126 -42 -370 -164 -495
-247 -436 -289 -764 -754 -890 -1261 -48 -193 -63 -316 -63 -531 0 -265 31
-456 114 -705 42 -126 164 -370 247 -495 289 -436 754 -764 1261 -890 193 -48
316 -63 531 -63 265 0 456 31 705 114 126 42 370 164 495 247 436 289 764 754
890 1261 48 193 63 316 63 531 0 265 -31 456 -114 705 -42 126 -164 370 -247
495 -333 502 -882 847 -1482 934 -108 16 -366 27 -455 20z m690 -924 c377
-352 399 -375 389 -392 -5 -9 -117 -128 -250 -264 -132 -137 -258 -269 -281
-293 l-40 -44 -105 99 -106 99 96 98 97 97 -305 0 c-276 0 -309 -2 -345 -19
-52 -24 -91 -66 -110 -120 -27 -77 -14 -149 37 -207 60 -68 60 -68 398 -74
298 -6 307 -6 378 -32 200 -72 339 -214 408 -418 15 -43 19 -83 18 -185 0
-114 -3 -138 -26 -197 -37 -98 -84 -172 -154 -242 -72 -72 -144 -117 -246
-154 -73 -27 -75 -27 -398 -30 l-325 -4 79 -73 80 -73 -46 -54 c-25 -29 -68
-78 -96 -108 l-50 -55 -58 55 c-417 392 -534 504 -534 512 0 5 120 134 266
286 147 152 277 288 290 301 l22 24 105 -99 105 -99 -96 -98 -97 -97 302 0
301 0 53 28 c123 64 146 238 43 334 -58 54 -80 58 -366 58 -301 0 -358 8 -477
67 -101 50 -222 168 -273 268 -56 108 -72 175 -72 295 0 72 6 124 18 165 50
169 173 318 325 394 127 65 171 71 516 71 l300 1 -80 74 -80 74 21 23 c135
153 168 188 175 186 4 -2 91 -82 194 -178z"/>
</g>
</svg>
