<?xml version="1.0" standalone="no"?>
<!DOCTYPE svg PUBLIC "-//W3C//DTD SVG 20010904//EN"
 "http://www.w3.org/TR/2001/REC-SVG-20010904/DTD/svg10.dtd">
<svg version="1.0" xmlns="http://www.w3.org/2000/svg"
 width="1728.000000pt" height="1728.000000pt" viewBox="0 0 1728.000000 1728.000000"
 preserveAspectRatio="xMidYMid meet">
<metadata>
Created by potrace 1.14, written by Peter Selinger 2001-2017
</metadata>
<g transform="translate(0.000000,1728.000000) scale(0.100000,-0.100000)"
fill="#000000" stroke="none">
<path d="M8275 17274 c-287 -17 -421 -28 -615 -50 -1617 -180 -3184 -836
-4453 -1867 -441 -357 -931 -847 -1284 -1284 -1044 -1289 -1695 -2853 -1872
-4493 -38 -352 -46 -508 -46 -940 0 -446 8 -595 51 -980 274 -2468 1619 -4709
3684 -6137 326 -226 664 -424 1050 -617 1026 -512 2066 -795 3260 -888 217
-17 962 -17 1180 0 924 71 1746 256 2570 579 1476 577 2790 1578 3752 2858
567 755 1004 1594 1301 2501 221 672 350 1332 409 2094 17 217 17 962 0 1180
-150 1944 -862 3655 -2126 5106 -167 191 -609 633 -798 798 -1272 1107 -2770
1803 -4413 2051 -176 26 -465 59 -675 75 -134 11 -859 21 -975 14z m3922
-4020 c659 -620 1198 -1130 1198 -1134 0 -4 -528 -557 -1174 -1229 l-1173
-1220 -84 77 c-244 226 -752 708 -753 714 -1 4 357 366 794 806 437 440 795
802 795 805 0 4 -356 329 -790 723 -435 394 -789 721 -787 727 4 14 761 857
769 857 4 0 546 -507 1205 -1126z m-1052 -795 c231 -209 422 -385 424 -391 2
-6 -198 -212 -445 -459 l-449 -449 -1497 0 c-1618 0 -1564 2 -1710 -54 -346
-130 -555 -455 -535 -834 19 -375 249 -659 623 -769 54 -16 152 -18 1099 -23
1075 -7 1068 -7 1295 -51 372 -74 781 -266 1085 -510 100 -80 280 -259 363
-361 240 -295 429 -685 512 -1058 40 -178 53 -318 53 -540 0 -438 -88 -797
-290 -1180 -338 -639 -946 -1108 -1653 -1274 -268 -63 -164 -60 -1890 -63
l-1575 -3 -415 376 c-243 220 -416 384 -418 397 -3 15 100 124 440 464 l443
443 1451 0 c1260 0 1463 2 1539 15 227 40 423 168 549 359 84 126 115 212 136
366 18 131 -5 299 -57 425 -78 187 -261 369 -450 449 -149 62 -91 59 -1233 66
-1133 7 -1101 5 -1355 65 -440 103 -884 354 -1207 682 -404 409 -661 954 -719
1528 -18 183 -7 495 25 675 54 310 152 573 316 851 249 421 630 771 1075 989
280 136 541 210 865 243 19 2 744 5 1610 5 l1575 2 420 -381z m-4411 -5319
c184 -173 335 -318 335 -322 1 -4 -357 -366 -794 -806 -437 -440 -795 -802
-795 -805 0 -4 356 -329 790 -723 435 -394 790 -719 790 -723 0 -9 -758 -855
-769 -859 -10 -3 -2406 2246 -2406 2258 0 4 528 557 1174 1229 l1173 1220 84
-77 c46 -42 234 -219 418 -392z"/>
</g>
</svg>
