<?xml version="1.0" standalone="no"?>
<!DOCTYPE svg PUBLIC "-//W3C//DTD SVG 20010904//EN"
 "http://www.w3.org/TR/2001/REC-SVG-20010904/DTD/svg10.dtd">
<svg version="1.0" xmlns="http://www.w3.org/2000/svg"
 width="1728.000000pt" height="1728.000000pt" viewBox="0 0 1728.000000 1728.000000"
 preserveAspectRatio="xMidYMid meet">
<metadata>
Created by potrace 1.14, written by Peter Selinger 2001-2017
</metadata>
<g transform="translate(0.000000,1728.000000) scale(0.100000,-0.100000)"
fill="#000000" stroke="none">
<path d="M8200 17269 c-1697 -84 -3352 -679 -4715 -1696 -359 -268 -608 -485
-951 -827 -442 -443 -756 -824 -1087 -1321 -1157 -1739 -1639 -3801 -1376
-5890 198 -1570 849 -3092 1852 -4328 357 -441 847 -931 1284 -1284 1139 -922
2508 -1546 3933 -1792 2215 -384 4457 89 6305 1329 491 330 864 638 1301 1074
257 258 424 442 611 673 922 1139 1546 2508 1792 3933 384 2215 -89 4457
-1329 6305 -330 491 -638 864 -1074 1301 -443 442 -824 756 -1321 1087 -1548
1030 -3359 1528 -5225 1436z m3997 -4015 c659 -620 1198 -1130 1198 -1134 0
-4 -528 -557 -1174 -1229 l-1173 -1220 -84 77 c-244 226 -752 708 -753 714 -1
4 357 366 794 806 437 440 795 802 795 805 0 4 -356 329 -790 723 -435 394
-789 721 -787 727 4 14 761 857 769 857 4 0 546 -507 1205 -1126z m-1052 -795
c231 -209 422 -385 424 -391 2 -6 -198 -212 -445 -459 l-449 -449 -1495 0
c-1612 -1 -1570 1 -1712 -53 -430 -164 -641 -629 -488 -1075 77 -226 251 -407
475 -493 150 -59 144 -58 1170 -59 958 0 1064 -3 1271 -40 390 -69 823 -267
1139 -521 100 -80 280 -260 361 -359 264 -325 455 -735 528 -1134 121 -655
-12 -1306 -379 -1861 -352 -531 -903 -913 -1525 -1059 -269 -63 -163 -60
-1890 -63 l-1575 -3 -415 376 c-267 242 -416 384 -418 397 -2 17 98 122 440
464 l443 443 1490 3 c1649 3 1525 -2 1687 67 241 103 423 321 483 582 25 106
23 289 -4 393 -24 89 -74 202 -121 270 -81 117 -236 244 -367 299 -148 62 -90
59 -1238 66 -1153 7 -1107 5 -1375 71 -435 108 -864 353 -1182 676 -401 406
-655 938 -718 1508 -15 133 -12 422 5 569 98 836 637 1588 1410 1966 273 133
549 212 855 243 19 2 746 5 1615 5 l1580 2 420 -381z m-4411 -5319 c184 -173
335 -318 335 -322 1 -4 -357 -366 -794 -806 -437 -440 -795 -802 -795 -805 0
-4 356 -329 790 -723 435 -394 790 -719 790 -723 0 -9 -758 -855 -769 -859
-10 -3 -2406 2246 -2406 2258 0 4 528 557 1174 1229 l1173 1220 84 -77 c46
-42 234 -219 418 -392z"/>
</g>
</svg>
